# xmcd
#
# Track frame offsets: 
#        150
#        17642
#        33199
#        47127
#        66231
#        83859
#        96814
#        107711
#        121158
#        138614
#        153146
#        175492
#
# Disc length: 2632 seconds
#
# Revision: 2
# Processed by: cddbd v1.5.2PL0 Copyright (c) Steve Scherf et al.
# Submitted via: ExactAudioCopy v1.0b1
#
DISCID=980a460c
DTITLE=Rocco DeLuca and The Burden - I Trust You To Kill Me
DYEAR=2006
DGENRE=Rock
TTITLE0=Gift
TTITLE1=Dope
TTITLE2=Colorful
TTITLE3=Bus Ride
TTITLE4=Swing Low
TTITLE5=Speak To Me
TTITLE6=How Fast
TTITLE7=Gravitate
TTITLE8=Mystified
TTITLE9=Draw
TTITLE10=Soul
TTITLE11=Favor
EXTD=
EXTT0=
EXTT1=
EXTT2=
EXTT3=
EXTT4=
EXTT5=
EXTT6=
EXTT7=
EXTT8=
EXTT9=
EXTT10=
EXTT11=
PLAYORDER=
